 <svg className="me-2" width="16" height="16" viewBox="0 0 16 16" fill="none" xmlns="http://www.w3.org/2000/svg">
            <path d="M8.18126 5.17527C8.49179 4.86473 8.49179 4.34718 8.18126 4.01076L5.17942 0.982901C4.86889 0.672366 4.35133 0.672366 4.01491 0.982901L0.987052 4.01076C0.676517 4.3213 0.676517 4.83886 0.987052 5.17527C1.29759 5.4858 1.81514 5.4858 2.15156 5.17527L3.75599 3.57084V14.4396C3.75599 14.8795 4.11828 15.2677 4.58408 15.2677C5.024 15.2677 5.41217 14.9054 5.41217 14.4396V3.57084L7.0166 5.17527C7.17187 5.33054 7.37889 5.40817 7.58592 5.40817C7.79294 5.40817 8.02584 5.33054 8.18111 5.17527H8.18126Z" fill="#333333" />
            <path d="M15.013 10.817C14.7025 10.5065 14.1849 10.5065 13.8485 10.817L12.2441 12.4214V1.5527C12.2441 1.11278 11.8818 0.724609 11.416 0.724609C10.9502 0.750487 10.5879 1.11278 10.5879 1.57858V12.4473L8.98347 10.8429C8.8282 10.6876 8.62118 10.61 8.41415 10.61C8.20713 10.61 8.00011 10.6876 7.84484 10.8429C7.5343 11.1534 7.5343 11.671 7.84484 12.0074L10.8467 15.0092C11.1572 15.3197 11.6748 15.3197 12.0112 15.0092L15.013 12.0074C15.3236 11.671 15.3236 11.1534 15.013 10.817Z" fill="#333333" />
           </svg>